<?xml version="1.0" standalone="no"?><svg xmlns="http://www.w3.org/2000/svg" viewBox="0 0 1440 320"><path fill="#ff5500" fill-opacity="0.1" d="M0,128L10,133.3C20,139,40,149,60,138.7C80,128,100,96,120,96C140,96,160,128,180,122.7C200,117,220,75,240,96C260,117,280,203,300,197.3C320,192,340,96,360,58.7C380,21,400,43,420,69.3C440,96,460,128,480,154.7C500,181,520,203,540,202.7C560,203,580,181,600,144C620,107,640,53,660,64C680,75,700,149,720,197.3C740,245,760,267,780,234.7C800,203,820,117,840,106.7C860,96,880,160,900,170.7C920,181,940,139,960,106.7C980,75,1000,53,1020,74.7C1040,96,1060,160,1080,208C1100,256,1120,288,1140,272C1160,256,1180,192,1200,192C1220,192,1240,256,1260,240C1280,224,1300,128,1320,117.3C1340,107,1360,181,1380,202.7C1400,224,1420,192,1430,176L1440,160L1440,320L1430,320C1420,320,1400,320,1380,320C1360,320,1340,320,1320,320C1300,320,1280,320,1260,320C1240,320,1220,320,1200,320C1180,320,1160,320,1140,320C1120,320,1100,320,1080,320C1060,320,1040,320,1020,320C1000,320,980,320,960,320C940,320,920,320,900,320C880,320,860,320,840,320C820,320,800,320,780,320C760,320,740,320,720,320C700,320,680,320,660,320C640,320,620,320,600,320C580,320,560,320,540,320C520,320,500,320,480,320C460,320,440,320,420,320C400,320,380,320,360,320C340,320,320,320,300,320C280,320,260,320,240,320C220,320,200,320,180,320C160,320,140,320,120,320C100,320,80,320,60,320C40,320,20,320,10,320L0,320Z"></path></svg>