<?xml version="1.0" encoding="UTF-8"?>
<svg width="428px" height="182px" viewBox="0 0 428 182" version="1.1" xmlns="http://www.w3.org/2000/svg" xmlns:xlink="http://www.w3.org/1999/xlink">
    <title>link-hyperlink-url-svgrepo-com</title>
    <g id="Page-1" stroke="none" stroke-width="1" fill="none" fill-rule="evenodd">
        <g id="link-hyperlink-url-svgrepo-com" transform="translate(0.000000, -0.000000)" fill-rule="nonzero">
            <path d="M337.2,181.6 L285.7,181.6 C279.1,181.6 273.7,176.2 273.7,169.6 C273.7,163 279.1,157.6 285.7,157.6 L337.2,157.6 C355.1,157.6 371.8,150.7 384.4,138.1 C397,125.5 403.9,108.7 403.9,90.9 C403.9,54.1 373.9,24.1 337.1,24.1 L254.2,24.1 C236.3,24.1 219.6,31 207,43.6 C194.4,56.2 187.5,73 187.5,90.8 C187.5,97.4 182.1,102.8 175.5,102.8 C168.9,102.8 163.5,97.4 163.5,90.8 C163.5,66.5 172.9,43.7 190.1,26.6 C207.3,9.5 230,5.68434189e-14 254.3,5.68434189e-14 L337.2,5.68434189e-14 C387.3,5.68434189e-14 428,40.7 428,90.8 C428,115.1 418.6,137.9 401.4,155 C384.2,172.1 361.4,181.6 337.2,181.6 Z" id="Path" fill="#FA9E53"></path>
            <path d="M173.7,181.6 L90.8,181.6 C40.7,181.6 0,140.9 0,90.8 C0,66.5 9.4,43.7 26.6,26.6 C43.8,9.5 66.5,5.68434189e-14 90.8,5.68434189e-14 L142.3,5.68434189e-14 C148.9,5.68434189e-14 154.3,5.4 154.3,12 C154.3,18.6 148.9,24 142.3,24 L90.8,24 C72.9,24 56.2,30.9 43.6,43.5 C31,56.1 24.1,72.9 24.1,90.7 C24.1,127.5 54.1,157.5 90.9,157.5 L173.8,157.5 C191.7,157.5 208.4,150.6 221,138 C233.6,125.4 240.5,108.6 240.5,90.8 C240.5,84.2 245.9,78.8 252.5,78.8 C259.1,78.8 264.5,84.2 264.5,90.8 C264.5,115.1 255.1,137.9 237.9,155 C220.7,172.1 197.9,181.6 173.7,181.6 Z" id="Path" fill="#FF904D"></path>
        </g>
    </g>
</svg>